<?xml version="1.0" standalone="no"?><!DOCTYPE svg PUBLIC "-//W3C//DTD SVG 1.1//EN" "http://www.w3.org/Graphics/SVG/1.1/DTD/svg11.dtd"><svg t="1607266887323" class="icon" viewBox="0 0 1024 1024" version="1.1" xmlns="http://www.w3.org/2000/svg" p-id="3431" xmlns:xlink="http://www.w3.org/1999/xlink" width="200" height="200"><defs><style type="text/css"></style></defs><path d="M699.1 716.2l22.5 45 2.5-42.5z" fill="#568F86" p-id="3432"></path><path d="M488.1 658.8l353.4-127.4-119.9 229.8 2.5-42.5L576.8 906z" fill="#456162" p-id="3433"></path><path d="M385.3 580.6L377 746.2l40-33.7 77.4 123.6 82.4 69.9 5-126.1-30 28.7-17.5-142.3z" fill="#568F86" p-id="3434"></path><path d="M408.6 590.5l-131.5-56.6L377 746.2z" fill="#80AFAD" p-id="3435"></path><path d="M554.3 601.8V708L234.7 526.4V420.3z" fill="#F9CA49" p-id="3436"></path><path d="M727.7 328.5L794.4 444l-145.3 85.2-157.7-91.7 116.4-177.7-40.2-23-332.9 183.5 319.6 181.5 329.6-184z" fill="#C8DDCD" p-id="3437"></path><path d="M883.9 523.2V417.8l-329.6 184V708z" fill="#E79764" p-id="3438"></path><path d="M524.8 393.3l-105.3-61.2L525.8 170z" fill="#F9EFAA" p-id="3439"></path><path d="M621.7 336.4L525.8 170l-1 223.3z" fill="#D65C27" p-id="3440"></path><path d="M524.7 303l1.1-133-79 111.8 25.9-0.2 25.8 41.7z" fill="#93C69A" p-id="3441"></path><path d="M524.7 302.9l1.1-132.9 67 106.7-36.3 5.1-14.8 34.7z" fill="#6AA875" p-id="3442"></path><path d="M649.1 529.2l-157.7-91.7 159.2-242.9z" fill="#FFE497" p-id="3443"></path><path d="M794.4 444L650.6 194.6l-1.5 334.6z" fill="#E99B73" p-id="3444"></path><path d="M649.8 368.7l0.8-174.1-98.8 141.8 40.1-15.6 29.3 61.6z" fill="#67C6B4" p-id="3445"></path><path d="M649.8 368.4l0.8-173.8 90.2 146-34.5-1.5-20.5 33.8z" fill="#477B70" p-id="3446"></path><path d="M440.7 222.4v15L397 204.8v-15z" fill="#749493" p-id="3447"></path><path d="M426.9 173.8l-29.9 16 43.7 32.6 45.1-17.3 8.7-32.2z" fill="#BCC8A2" p-id="3448"></path><path d="M485.8 220.7v-15.6l-45.1 17.3v15z" fill="#5E7A51" p-id="3449"></path><path d="M494.5 172.9l-8.7 47.8v-15.6z" fill="#476367" p-id="3450"></path><path d="M388.5 259l34.8-38.1v-8.7l-36.7 33.3z" fill="#873836" p-id="3451"></path><path d="M386.6 245.5l36.7-33.3-7.2-4.2-42.4 33.5z" fill="#E5AB1A" p-id="3452"></path><path d="M369.5 402.8v51l-34.9-19.5v-50.9z" fill="#6D473C" p-id="3453"></path><path d="M355.2 372.1l-20.6 11.3 34.9 19.4 19.2-11.4zM367 226.9l-20.8 11.2 22.1 12.3 21-12.6z" fill="#FAD256" p-id="3454"></path><path d="M388.5 391.5l-33.3-19.4-9-134 22.1 12.3z" fill="#936B4A" p-id="3455"></path><path d="M417.5 425.7v-51.5l-48 28.6v51z" fill="#512F24" p-id="3456"></path><path d="M389.6 238l27.9 136.2-29 17.3-20.2-141.1z" fill="#6D473C" p-id="3457"></path><path d="M419.3 418.1v49.3l-6.6-4.6-2.7-24-16.8-9.4v-26z" fill="#6D473C" p-id="3458"></path><path d="M417.7 390l-24.5 13.4 26.1 14.7 24.5-14.6z" fill="#FAD256" p-id="3459"></path><path d="M443.8 453.1v-49.6l-24.5 14.6v49.3z" fill="#512F24" p-id="3460"></path><path d="M361.1 245.1l-11.5-6.8-11.3-18h3.6z" fill="#82736A" p-id="3461"></path><path d="M361.1 245.1l9.1-5.1-20.5-27.4-115.1-3.4 106.6 12z" fill="#6D473C" p-id="3462"></path><path d="M200.1 250.1v17.2l50.2-37.3v-17.3z" fill="#476367" p-id="3463"></path><path d="M215.9 194.3l34.4 18.4-50.2 37.4-46.8-9 7.2-22.1z" fill="#BCC8A2" p-id="3464"></path><path d="M153.3 259v-17.9l46.8 9v17.2z" fill="#5E7A51" p-id="3465"></path><path d="M252.3 192.1h45v13.7h-45z" fill="#517C7A" p-id="3466"></path><path d="M255.1 185.8l35.4-1.1 6.8 7.4h-45z" fill="#476367" p-id="3467"></path><path d="M294.6 249v14.4l-42-31.2v-14.5z" fill="#749493" p-id="3468"></path><path d="M281.4 202.3l-28.8 15.4 42 31.3 39.2-7.5-6-18.5z" fill="#80AFAD" p-id="3469"></path><path d="M333.8 256.5v-15l-39.2 7.5v14.4z" fill="#476367" p-id="3470"></path></svg>