<?xml version="1.0" standalone="no"?><!DOCTYPE svg PUBLIC "-//W3C//DTD SVG 1.1//EN" "http://www.w3.org/Graphics/SVG/1.1/DTD/svg11.dtd"><svg t="1607267001235" class="icon" viewBox="0 0 1024 1024" version="1.1" xmlns="http://www.w3.org/2000/svg" p-id="2491" xmlns:xlink="http://www.w3.org/1999/xlink" width="200" height="200"><defs><style type="text/css"></style></defs><path d="M742.9 555.6s227.6 37.5 168.8 167.8C878.6 796.7 785 823.6 785 823.6l76-50.2s51.6-63.8 17-116.7-150.7-50.9-150.7-50.9l15.6-50.2z" fill="#E88985" p-id="2492"></path><path d="M639.8 440.2v396.3L276.5 626.2V229.8z" fill="#F9CA49" p-id="2493"></path><path d="M385.9 170l-109.4 59.8 363.3 210.4L747 379.1z" fill="#BECAA4" p-id="2494"></path><path d="M747 774.8V379.1l-107.2 61.1v396.3z" fill="#3B262B" p-id="2495"></path><path d="M371 338.3v38.6l-79.2-44.8v-38.6z" fill="#F4EBC3" p-id="2496"></path><path d="M297.2 291.2l-5.4 2.3 79.2 44.8 7.1-3.6z" fill="#BECAA4" p-id="2497"></path><path d="M378.1 373.9v-39.2l-7.1 3.6v38.6z" fill="#749493" p-id="2498"></path><path d="M474.4 511.6v175.1l-31.7-18.2-129.6-188.2v-61.7z" fill="#FAB1AB" p-id="2499"></path><path d="M375.4 384.5l-62.3 34.1 161.3 93 61.1-34.8z" fill="#BECAA4" p-id="2500"></path><path d="M535.5 651.5V476.8l-61.1 34.8v175.1z" fill="#476367" p-id="2501"></path><path d="M592.6 772.2v55.4l-66.2-36.8v-55.3z" fill="#EDB733" p-id="2502"></path><path d="M553.6 720.6l-27.2 14.9 66.2 36.7 25.7-14.9z" fill="#EFD4CD" p-id="2503"></path><path d="M618.3 813.8v-56.5l-25.7 14.9v55.4z" fill="#B64C2D" p-id="2504"></path><path d="M396 577.2v226L188.9 683.3v-226z" fill="#F9CA49" p-id="2505"></path><path d="M251.2 423.1l-62.3 34.2L396 577.2l61.2-34.8z" fill="#FFE497" p-id="2506"></path><path d="M457.2 768V542.4L396 577.2v226z" fill="#E79764" p-id="2507"></path><path d="M229.568151 632.393834a71.3 59.2 82.82 1 0 117.471554-14.79845 71.3 59.2 82.82 1 0-117.471554 14.79845Z" fill="#B64C2D" p-id="2508"></path><path d="M285.5 553.9c4.6 0 9.4 0.7 14.1 2 32.2 9.3 53.2 47.7 46.9 85.9-5.3 32.5-28.8 54.3-55.5 54.3-4.6 0-9.4-0.7-14.1-2-32.2-9.3-53.2-47.7-46.9-85.9 5.4-32.5 28.8-54.3 55.5-54.3m-0.3-13.4c-15.9 0-31.4 6.4-43.5 18.2-12.3 11.9-20.4 28.1-23.5 46.8-3.6 21.7 0.2 44.2 10.7 63.3 10.6 19.3 26.7 32.9 45.4 38.3 5.7 1.6 11.5 2.5 17.2 2.5 15.9 0 31.4-6.4 43.5-18.1 12.3-11.9 20.4-28.1 23.5-46.8 3.6-21.7-0.2-44.2-10.7-63.3-10.6-19.3-26.7-32.9-45.4-38.3-5.7-1.8-11.5-2.6-17.2-2.6z" fill="#FAB1AB" p-id="2509"></path><path d="M346.6 641.8c6.3-38.2-14.7-76.6-46.9-85.9-4.6-1.3-9.2-2-13.7-2-7.1 8.9-12.3 20.4-14.5 33.6-6.3 38.2 14.7 76.6 46.9 85.9 4.6 1.3 9.2 2 13.7 2 7.1-8.9 12.3-20.3 14.5-33.6z" fill="#476367" p-id="2510"></path><path d="M312.4 561.5c-1.3 3.9-2.3 8-3 12.2-5.4 32.8 9.4 65.9 34.2 80.4 1.3-3.9 2.3-8 3-12.2 5.4-32.9-9.5-65.9-34.2-80.4z" fill="#3B262B" p-id="2511"></path><path d="M369 262.5v53.9l8.2-3.8v-23.5l21.6-12.7v-31.5z" fill="#476367" p-id="2512"></path><path d="M369 262.5l-55.2-31.4V285l55.2 31.4z" fill="#80AFAD" p-id="2513"></path><path d="M369 262.5l-55.2-31.4 29.5-16.8 55.5 30.6zM741.9 389.8l-61.6 35.5-139.6-82.1 58.6-35.6z" fill="#FAD256" p-id="2514"></path><path d="M669.4 783.7V448.3l61.7-35.5V747s-7.6 63.8 96 38c79.9-19.9 84.1-63.8 84.1-63.8s-20.4 74.3-96.4 108.6c-69.2 31.2-142.9-5.2-145.4-46.1z" fill="#FAB1AB" p-id="2515"></path><path d="M741.9 389.8l-61.6 35.5v64.9l61.6-36.8z" fill="#476367" p-id="2516"></path><path d="M680.3 425.3v64.9l-17.8-9.3 0.8-53.8-122.6-70.6v-13.3z" fill="#80AFAD" p-id="2517"></path></svg>